<?xml version="1.0" encoding="utf-8"?>
<!-- Generator: Adobe Illustrator 27.6.1, SVG Export Plug-In . SVG Version: 6.00 Build 0)  -->
<svg version="1.1" id="Layer_1" xmlns="http://www.w3.org/2000/svg" xmlns:xlink="http://www.w3.org/1999/xlink" x="0px" y="0px"
	 viewBox="0 0 200 200" style="enable-background:new 0 0 200 200;" xml:space="preserve">
<style type="text/css">
	.st0{fill:url(#SVGID_1_);}
	.st1{fill:url(#SVGID_00000181060743659392703820000010784247233544351412_);}
	.st2{fill:url(#SVGID_00000049184091012033993630000012946528528924024486_);}
</style>
<g>
	
		<linearGradient id="SVGID_1_" gradientUnits="userSpaceOnUse" x1="433.8994" y1="462.165" x2="600.7219" y2="506.8707" gradientTransform="matrix(0.7071 -0.7071 -0.7071 -0.7071 68.0974 803.3654)">
		<stop  offset="0" style="stop-color:#7E98FF"/>
		<stop  offset="6.000000e-02" style="stop-color:#7084F1"/>
		<stop  offset="0.14" style="stop-color:#626FE2"/>
		<stop  offset="0.58" style="stop-color:#FF2608"/>
		<stop  offset="0.65" style="stop-color:#FF3806"/>
		<stop  offset="0.88" style="stop-color:#FF7001"/>
		<stop  offset="0.99" style="stop-color:#FF8600"/>
	</linearGradient>
	<path class="st0" d="M82.1,166.4L82.1,166.4c-5.2-22.7,0.1-48.7,20.3-68.8c27.6-27.7,21.5-73-3-97.5L52.2,47.3
		C21.5,78,25.1,122.1,48,147.4c1.8,2,2.5,2.8,52.4,52.6C91.7,191,85.2,179.4,82.1,166.4L82.1,166.4z"/>
	
		<linearGradient id="SVGID_00000109001123059390122440000017162808432247550653_" gradientUnits="userSpaceOnUse" x1="194.0856" y1="135.6573" x2="88.5405" y2="30.1123" gradientTransform="matrix(1 0 0 -1 0 200.52)">
		<stop  offset="0" style="stop-color:#FF2608"/>
		<stop  offset="8.000000e-02" style="stop-color:#FE2F09"/>
		<stop  offset="0.2" style="stop-color:#FE480C"/>
		<stop  offset="0.36" style="stop-color:#FD7112"/>
		<stop  offset="0.49" style="stop-color:#FD9818"/>
		<stop  offset="0.99" style="stop-color:#FF8600"/>
	</linearGradient>
	<path style="fill:url(#SVGID_00000109001123059390122440000017162808432247550653_);" d="M157.6,59.8
		c-33.8,33.9-22.7,22.8-50.1,50.1c-27.7,27.7-24.1,62.9-19.7,72.2c-0.4-0.8,1.5,3.2,3.2,5.9c2.7,4.3,5.8,8.3,9.4,12l0.1,0.1
		c5-5,42.3-42.2,47.3-47.3C175.7,124.8,175.3,85.7,157.6,59.8L157.6,59.8z"/>
	
		<linearGradient id="SVGID_00000054972875112726685420000008320670970375968186_" gradientUnits="userSpaceOnUse" x1="656.5814" y1="763.1187" x2="609.6114" y2="662.3805" gradientTransform="matrix(0.7071 -0.7071 -0.7071 -0.7071 172.5574 1055.6154)">
		<stop  offset="0" style="stop-color:#FF2608"/>
		<stop  offset="0.11" style="stop-color:#FE2F09"/>
		<stop  offset="0.29" style="stop-color:#FE480C"/>
		<stop  offset="0.53" style="stop-color:#FD7112"/>
		<stop  offset="0.71" style="stop-color:#FD9818"/>
		<stop  offset="0.99" style="stop-color:#FFFFFF"/>
	</linearGradient>
	<path style="fill:url(#SVGID_00000054972875112726685420000008320670970375968186_);" d="M149.7,50.2c1.7,1.7,3.3,3.5,4.8,5.3
		c1.1,1.4,2.1,2.8,3.1,4.2c-34.8,34.9-22.5,22.5-50.1,50.1c-27.7,27.7-24.1,62.9-19.7,72.2c-5.4-10-8.8-25.5-7-40.9
		c1.9-15.7,9-31,21.7-43.7C129.8,70.2,118.2,81.8,149.7,50.2L149.7,50.2z"/>
</g>
</svg>
